:FULLY-SPECIFIED
:FORCE-ALL-JOINTS-BE-3DOF
:DEGREES
510
root -5.44065 14.9482 -42.274 381.106 -11.9525 382.448
lfemur -37.8441 27.3032 -23.3512
ltibia 66.5385 0 0
lfoot -25.2008 29.1454 0
ltoes -1.29171 0 0
rfemur -29.3275 -10.7892 13.6949
rtibia 75.3363 0 0
rfoot -7.04831 -13.0297 0
rtoes 16.5519 0 0
lowerback 16.7419 -0.654318 -7.50656
upperback -0.341506 -2.05025 3.29464
thorax -9.45201 -0.538142 8.39977
lowerneck 3.83312 -15.0502 -16.38
upperneck 3.14743 -21.3728 18.5988
head 4.33485 -10.953 7.09877
lclavicle 4.17432e-15 -8.80231e-16 0
lhumerus -16.2547 -48.0256 92.5773
lradius 87.6592 0 0
lwrist 43.5157 0 0
lhand -9.78571 44.8658 0
lfingers 7.12502 0 0
lthumb 16.1936 74.2378 0
rclavicle 4.17432e-15 -8.80231e-16 0
rhumerus 50.1556 22.3249 -32.2049
rradius 95.6101 0 0
rwrist -19.7539 0 0
rhand -3.45728 -14.5451 0
rfingers 7.12502 0 0
rthumb 22.1757 -42.0683 0
511
root -5.49324 14.9287 -42.2873 379.919 -14.436 382.299
lfemur -36.2628 26.578 -22.5088
ltibia 66.1597 0 0
lfoot -24.9418 28.9004 0
ltoes -2.35973 0 0
rfemur -30.1822 -11.3646 13.4975
rtibia 75.0326 0 0
rfoot -6.98306 -12.0167 0
rtoes 16.3863 0 0
lowerback 16.7863 -0.559912 -7.57859
upperback -0.293688 -1.95235 3.19257
thorax -9.4451 -0.493314 8.30356
lowerneck 3.55153 -14.9033 -16.2866
upperneck 3.5218 -21.1498 18.2656
head 4.40974 -10.8292 6.98207
lclavicle 4.37298e-15 -1.11269e-15 0
lhumerus -18.4709 -46.5267 92.7755
lradius 88.3257 0 0
lwrist 45.1067 0 0
lhand -10.1673 45.1153 0
lfingers 7.12502 0 0
lthumb 15.8269 74.5258 0
rclavicle 4.37298e-15 -1.11269e-15 0
rhumerus 48.3912 21.393 -33.3625
rradius 93.8362 0 0
rwrist -19.1211 0 0
rhand -4.51474 -14.6068 0
rfingers 7.12502 0 0
rthumb 21.1601 -42.2316 0
512
root -5.53973 14.9086 -42.2959 378.588 -16.8902 382.018
lfemur -34.6447 25.8172 -21.6474
ltibia 65.7742 0 0
lfoot -24.6795 28.6513 0
ltoes -3.45393 0 0
rfemur -31.0649 -11.9426 13.291
rtibia 74.7116 0 0
rfoot -6.91193 -10.9811 0
rtoes 16.1964 0 0
lowerback 16.8294 -0.461905 -7.64909
upperback -0.245303 -1.84943 3.08855
thorax -9.43756 -0.446219 8.2031
lowerneck 3.26869 -14.7537 -16.1888
upperneck 3.89295 -20.9223 17.9258
head 4.48188 -10.7028 6.86334
lclavicle 4.62103e-15 -1.34479e-15 0
lhumerus -20.7402 -45.0092 92.9846
lradius 89.0081 0 0
lwrist 46.7102 0 0
lhand -10.5432 45.3681 0
lfingers 7.12502 0 0
lthumb 15.4657 74.8164 0
rclavicle 4.62103e-15 -1.34479e-15 0
rhumerus 46.598 20.4415 -34.5348
rradius 92.0109 0 0
rwrist -18.4881 0 0
rhand -5.58058 -14.6951 0
rfingers 7.12502 0 0
rthumb 20.1365 -42.4237 0
513
root -5.58081 14.8879 -42.3001 377.13 -19.318 381.618
lfemur -32.9935 25.0249 -20.7696
ltibia 65.3811 0 0
lfoot -24.4148 28.399 0
ltoes -4.57066 0 0
rfemur -31.9732 -12.5226 13.0761
rtibia 74.3749 0 0
rfoot -6.83556 -9.92616 0
rtoes 15.9827 0 0
lowerback 16.8709 -0.360484 -7.71777
upperback -0.196529 -1.74165 2.98274
thorax -9.42943 -0.396943 8.09848
lowerneck 2.98538 -14.6017 -16.0869
upperneck 4.2596 -20.6908 17.58
head 4.55094 -10.5743 6.74286
lclavicle 4.91508e-15 -1.57534e-15 0
lhumerus -23.0567 -43.4761 93.2041
lradius 89.7045 0 0
lwrist 48.3228 0 0
lhand -10.9114 45.6247 0
lfingers 7.12502 0 0
lthumb 15.1119 75.1096 0
rclavicle 4.91508e-15 -1.57534e-15 0
rhumerus 44.7801 19.474 -35.7189
rradius 90.1377 0 0
rwrist -17.8538 0 0
rhand -6.65229 -14.8092 0
rfingers 7.12502 0 0
rthumb 19.1073 -42.6432 0
514
root -5.61718 14.8667 -42.3006 375.559 -21.7224 381.116
lfemur -31.3132 24.2049 -19.878
ltibia 64.9796 0 0
lfoot -24.1485 28.1443 0
ltoes -5.70627 0 0
rfemur -32.9045 -13.1039 12.8534
rtibia 74.0242 0 0
rfoot -6.7546 -8.85505 0
rtoes 15.7459 0 0
lowerback 16.9109 -0.255834 -7.78437
upperback -0.147543 -1.62919 2.87534
thorax -9.42077 -0.345567 7.98978
lowerneck 2.70237 -14.4477 -15.9811
upperneck 4.62049 -20.4557 17.2288
head 4.61662 -10.4438 6.6209
lclavicle 5.25175e-15 -1.80316e-15 0
lhumerus -25.4146 -41.9303 93.4334
lradius 90.4131 0 0
lwrist 49.9409 0 0
lhand -11.2697 45.8853 0
lfingers 7.12502 0 0
lthumb 14.7675 75.4057 0
rclavicle 5.25175e-15 -1.80316e-15 0
rhumerus 42.9413 18.4945 -36.9116
rradius 88.2203 0 0
rwrist -17.2171 0 0
rhand -7.72733 -14.9482 0
rfingers 7.12502 0 0
rthumb 18.0751 -42.8891 0
515
root -5.64951 14.8451 -42.2977 373.892 -24.1064 380.525
lfemur -29.6075 23.3611 -18.9751
ltibia 64.569 0 0
lfoot -23.8814 27.888 0
ltoes -6.85714 0 0
rfemur -33.8562 -13.6862 12.6236
rtibia 73.6611 0 0
rfoot -6.66972 -7.77102 0
rtoes 15.4867 0 0
lowerback 16.9491 -0.148142 -7.8486
upperback -0.0985209 -1.51221 2.76651
thorax -9.41163 -0.292175 7.87707
lowerneck 2.42045 -14.2919 -15.8718
upperneck 4.97432 -20.2176 16.8731
head 4.67861 -10.3117 6.49773
lclavicle 5.62766e-15 -2.02709e-15 0
lhumerus -27.8081 -40.3747 93.672
lradius 91.132 0 0
lwrist 51.5609 0 0
lhand -11.6161 46.1502 0
lfingers 7.12502 0 0
lthumb 14.4345 75.7046 0
rclavicle 5.62766e-15 -2.02709e-15 0
rhumerus 41.0855 17.5068 -38.1099
rradius 86.2625 0 0
rwrist -16.5768 0 0
rhand -8.80317 -15.1114 0
rfingers 7.12502 0 0
rthumb 17.0421 -43.1603 0
516
root -5.6785 14.8232 -42.292 372.143 -26.4731 379.861
lfemur -27.8804 22.4976 -18.0635
ltibia 64.1483 0 0
lfoot -23.6144 27.631 0
ltoes -8.0196 0 0
rfemur -34.8258 -14.2686 12.3874
rtibia 73.2874 0 0
rfoot -6.58158 -6.67729 0
rtoes 15.2057 0 0
lowerback 16.9854 -0.0375941 -7.91017
upperback -0.0496406 -1.3909 2.65643
thorax -9.40208 -0.23685 7.76044
lowerneck 2.14037 -14.1346 -15.7592
upperneck 5.31984 -19.9768 16.5134
head 4.73659 -10.1782 6.37363
lclavicle 6.03943e-15 -2.24594e-15 0
lhumerus -30.2313 -38.8123 93.9193
lradius 91.8593 0 0
lwrist 53.1794 0 0
lhand -11.9485 46.4199 0
lfingers 7.12502 0 0
lthumb 14.115 76.0064 0
rclavicle 6.03943e-15 -2.24594e-15 0
rhumerus 39.2167 16.5145 -39.3107
rradius 84.2677 0 0
rwrist -15.9319 0 0
rhand -9.87729 -15.2978 0
rfingers 7.12502 0 0
rthumb 16.0109 -43.4556 0
517
root -5.70484 14.8011 -42.284 370.329 -28.8253 379.138
lfemur -26.1356 21.6182 -17.1458
ltibia 63.717 0 0
lfoot -23.3484 27.3742 0
ltoes -9.19001 0 0
rfemur -35.8107 -14.8508 12.1455
rtibia 72.9046 0 0
rfoot -6.49081 -5.57711 0
rtoes 14.9036 0 0
lowerback 17.0197 0.0756242 -7.9688
upperback -0.00107865 -1.26542 2.54528
thorax -9.39216 -0.179676 7.63997
lowerneck 1.86293 -13.9761 -15.6436
upperneck 5.65577 -19.7339 16.1504
head 4.79025 -10.0435 6.24887
lclavicle 6.48368e-15 -2.45854e-15 0
lhumerus -32.6785 -37.246 94.1747
lradius 92.5931 0 0
lwrist 54.7927 0 0
lhand -12.2649 46.6946 0
lfingers 7.12502 0 0
lthumb 13.8108 76.3113 0
rclavicle 6.48368e-15 -2.45854e-15 0
rhumerus 37.3386 15.5217 -40.511
rradius 82.2398 0 0
rwrist -15.2811 0 0
rhand -10.9471 -15.5067 0
rfingers 7.12502 0 0
rthumb 14.9839 -43.7741 0
518
root -5.72921 14.7789 -42.2741 368.465 -31.1663 378.371
lfemur -24.3771 20.727 -16.2247
ltibia 63.274 0 0
lfoot -23.0841 27.1183 0
ltoes -10.3647 0 0
rfemur -36.8084 -15.4322 11.8985
rtibia 72.5144 0 0
rfoot -6.39809 -4.4737 0
rtoes 14.5808 0 0
lowerback 17.0518 0.191326 -8.02421
upperback 0.046988 -1.13593 2.43322
thorax -9.38194 -0.120737 7.51574
lowerneck 1.5889 -13.8167 -15.5253
upperneck 5.98083 -19.4892 15.7848
head 4.83929 -9.9079 6.12372
lclavicle 6.95703e-15 -2.66371e-15 0
lhumerus -35.1438 -35.6788 94.4379
lradius 93.3317 0 0
lwrist 56.3975 0 0
lhand -12.5631 46.9746 0
lfingers 7.12502 0 0
lthumb 13.524 76.6192 0
rclavicle 6.95703e-15 -2.66371e-15 0
rhumerus 35.4554 14.532 -41.7076
rradius 80.1823 0 0
rwrist -14.6235 0 0
rhand -12.0102 -15.7371 0
rfingers 7.12502 0 0
rthumb 13.9635 -44.1146 0
519
root -5.75231 14.7567 -42.2628 366.567 -33.4988 377.574
lfemur -22.6087 19.8277 -15.3026
ltibia 62.8188 0 0
lfoot -22.8223 26.8642 0
ltoes -11.5401 0 0
rfemur -37.8164 -16.0121 11.6472
rtibia 72.1185 0 0
rfoot -6.30406 -3.3703 0
rtoes 14.2382 0 0
lowerback 17.0816 0.309326 -8.07612
upperback 0.0943825 -1.00263 2.32044
thorax -9.37146 -0.0601144 7.38782
lowerneck 1.31904 -13.6567 -15.4046
upperneck 6.29375 -19.2433 15.4173
head 4.88338 -9.77171 5.99847
lclavicle 7.45609e-15 -2.86027e-15 0
lhumerus -37.6214 -34.1136 94.708
lradius 94.073 0 0
lwrist 57.9901 0 0
lhand -12.8412 47.2603 0
lfingers 7.12502 0 0
lthumb 13.2566 76.9303 0
rclavicle 7.45609e-15 -2.86027e-15 0
rhumerus 33.5708 13.5492 -42.8975
rradius 78.099 0 0
rwrist -13.9577 0 0
rhand -13.064 -15.9883 0
rfingers 7.12502 0 0
rthumb 12.952 -44.4759 0
